:SAMPLES-PER-SECOND 30
:FULLY-SPECIFIED
:DEGREES
123
root  -27.6187 38.9227 -12.884 171.595 1.66374 170.932
RightUpLeg  -19.4733 -8.14929 -9.44168
RightLeg  -3.32718 -0.0859613 1.86706
RightFoot  0.386806 -0.705489 6.84413
RightToes  1.74622e-010 0 -3.6325e-017
Spine  4.1953 -0.802607 -6.1778
Spine1  10.3322 -0.566412 -1.55696
HEad  -4.90377 -1.04275 0.603463
LeftShoulder1  8.35408 -11.9572 -47.1468
LeftArm  -14.095 13.8084 -25.3078
LeftForeArm  30.1766 -37.3609 -6.71073
LeftHand  -0.244104 0.0205437 5.32207
RightShoulder  6.70518 10.0715 43.0468
RightArm  7.13434 -12.8772 33.3684
RightForeArm  2.63474 18.3249 5.83126
RightHand  -1.01077 1.88864 -16.2251
LeftUpLeg  16.207 7.94903 -7.02529
LeftLeg  15.6258 2.07325 -3.51824
LeftFoot  -20.7443 0.178241 0.649445
LeftToes  -2.63786e-011 -1.12672e-010 -2.07835e-011
124
root  -27.4808 38.7129 -14.4349 172.05 0.581348 171.394
RightUpLeg  -19.3752 -8.04731 -8.93127
RightLeg  -0.925351 -2.24611 1.98396
RightFoot  1.43411 -0.579451 5.34233
RightToes  1.74622e-010 0 -3.6325e-017
Spine  2.375 -0.859705 -4.89545
Spine1  11.4824 -0.530393 -1.74397
HEad  -5.06699 -1.73543 0.124581
LeftShoulder1  8.35988 -11.9136 -47.3157
LeftArm  -13.7839 14.2083 -25.7448
LeftForeArm  28.8807 -34.3377 -5.98632
LeftHand  -0.244104 0.0205437 5.32207
RightShoulder  6.69498 10.0647 42.9998
RightArm  5.87731 -12.6364 33.0939
RightForeArm  4.13244 16.8683 6.29026
RightHand  -1.02896 1.98503 -16.3033
LeftUpLeg  18.0642 9.83984 -5.34473
LeftLeg  16.671 -1.3563 -3.12575
LeftFoot  -21.2691 0.119312 -0.0981604
LeftToes  -2.63786e-011 -1.12672e-010 -2.07835e-011
125
root  -27.3312 38.6146 -16.0492 172.654 -0.420442 172.518
RightUpLeg  -19.7199 -7.3573 -7.70777
RightLeg  2.37669 -2.87647 1.53849
RightFoot  6.6267 -0.258325 1.99337
RightToes  1.74622e-010 0 -3.6325e-017
Spine  0.414016 -0.97614 -2.43602
Spine1  12.159 -0.468969 -2.22226
HEad  -4.80551 -2.09899 -0.519909
LeftShoulder1  8.40444 -11.8893 -47.6485
LeftArm  -12.3453 15.2887 -25.784
LeftForeArm  26.5544 -30.0569 -5.06408
LeftHand  -0.244104 0.0205437 5.32207
RightShoulder  6.65181 9.9463 43.105
RightArm  4.48334 -13.0203 32.5579
RightForeArm  5.34882 15.4549 6.7403
RightHand  -1.02879 2.00673 -16.2547
LeftUpLeg  19.5864 11.1184 -3.15584
LeftLeg  17.9142 -3.97341 -2.29008
LeftFoot  -20.9795 -0.00914688 -1.57999
LeftToes  -2.63786e-011 -1.12672e-010 -2.07835e-011
126
root  -27.2187 38.5785 -17.6774 173.069 -0.482688 174.383
RightUpLeg  -20.7508 -6.98774 -5.5913
RightLeg  6.48991 -1.05345 1.47694
RightFoot  12.8372 0.236531 -0.731891
RightToes  1.74622e-010 0 -3.6325e-017
Spine  -0.9413 -0.869379 2.08688
Spine1  12.0684 0.0776378 -3.82972
HEad  -4.44763 -2.07515 -1.22963
LeftShoulder1  8.44454 -11.7944 -48.1791
LeftArm  -10.3308 16.765 -25.6165
LeftForeArm  23.7009 -24.8178 -4.11598
LeftHand  -0.244104 0.0205437 5.32207
RightShoulder  6.63161 9.84598 43.3078
RightArm  2.85948 -13.5642 31.8238
RightForeArm  6.90989 13.8553 7.18074
RightHand  -0.961061 1.72051 -15.7896
LeftUpLeg  20.4502 11.7603 -0.2696
LeftLeg  20.4342 -5.34524 -1.85604
LeftFoot  -20.0357 -0.234624 -4.68696
LeftToes  -2.63786e-011 -1.12672e-010 -2.07835e-011
127
root  -27.119 38.576 -19.2109 173.367 0.21652 176.621
RightUpLeg  -21.7082 -7.89017 -2.73508
RightLeg  10.8764 1.49414 1.84246
RightFoot  15.3805 0.528688 -1.78897
RightToes  1.74622e-010 0 -3.6325e-017
Spine  -1.22573 -0.60032 7.24603
Spine1  11.38 0.788097 -5.56956
HEad  -4.70621 -1.62455 -2.02267
LeftShoulder1  8.41276 -11.6335 -48.5088
LeftArm  -9.95114 18.5464 -26.0028
LeftForeArm  22.0041 -19.3053 -3.75124
LeftHand  -0.244104 0.0205437 5.32207
RightShoulder  6.62109 9.87535 43.1352
RightArm  1.42637 -13.7798 31.344
RightForeArm  8.53708 12.3188 7.52233
RightHand  -0.85589 1.20861 -15.1512
LeftUpLeg  19.1649 11.2513 2.74827
LeftLeg  26.3067 -4.86998 -2.26859
LeftFoot  -16.3486 -0.274002 -8.88875
LeftToes  -2.63786e-011 -1.12672e-010 -2.07835e-011
128
root  -26.9831 38.6103 -20.5359 173.76 0.13934 178.824
RightUpLeg  -21.9865 -9.66003 0.072361
RightLeg  14.7188 2.53814 1.8921
RightFoot  13.3296 0.663998 -2.6276
RightToes  1.74622e-010 0 -3.6325e-017
Spine  -0.524344 -0.687995 10.7759
Spine1  10.3911 0.806579 -5.55194
HEad  -5.8535 -1.07392 -2.71817
LeftShoulder1  8.37669 -11.5954 -48.4223
LeftArm  -11.9729 20.4392 -27.1229
LeftForeArm  22.4204 -14.1616 -4.19515
LeftHand  -0.244104 0.0205437 5.32207
RightShoulder  6.55732 9.95071 42.4387
RightArm  1.12217 -13.6587 31.2268
RightForeArm  8.72239 11.7222 7.68114
RightHand  -0.813011 0.90057 -15.0824
LeftUpLeg  14.377 9.9734 5.29967
LeftLeg  36.2814 -3.29966 -2.18753
LeftFoot  -7.70398 0.40786 -11.6648
LeftToes  -2.63786e-011 -1.12672e-010 -2.07835e-011
129
root  -26.8255 38.6555 -21.6111 174.115 -1.53791 -179.323
RightUpLeg  -21.7861 -10.785 1.69486
RightLeg  17.7035 1.40014 1.7307
RightFoot  9.78349 0.784878 -3.84329
RightToes  1.74622e-010 0 -3.6325e-017
Spine  0.817352 -1.28348 12.3942
Spine1  9.37075 0.0699651 -3.84208
HEad  -7.65697 -0.994596 -2.89773
LeftShoulder1  8.44205 -11.7777 -48.2175
LeftArm  -12.5842 21.8092 -28.3692
LeftForeArm  22.6333 -10.1233 -4.4948
LeftHand  -0.244104 0.0205437 5.32207
RightShoulder  6.4612 9.94254 41.8007
RightArm  2.42772 -13.3777 30.9579
RightForeArm  6.48272 12.6928 7.6119
RightHand  -0.887698 1.13931 -15.8516
LeftUpLeg  6.9535 7.20432 6.5924
LeftLeg  47.6557 -0.735334 -0.40872
LeftFoot  2.78204 1.35147 -11.1798
LeftToes  -2.63786e-011 -1.12672e-010 -2.07835e-011
130
root  -26.694 38.768 -22.5447 174.255 -3.65951 -178.116
RightUpLeg  -21.0489 -11.1822 2.15115
RightLeg  19.4118 -0.291682 1.72039
RightFoot  7.50557 0.839025 -4.72946
RightToes  1.74622e-010 0 -3.6325e-017
Spine  2.33537 -1.8367 13.4787
Spine1  8.6354 -0.527813 -2.4126
HEad  -9.81173 -1.59647 -2.45443
LeftShoulder1  8.57634 -12.0143 -48.2391
LeftArm  -11.5561 22.2825 -29.0155
LeftForeArm  23.5766 -7.85479 -4.77163
LeftHand  -0.244104 0.0205437 5.32207
RightShoulder  6.41624 9.88342 41.6853
RightArm  4.97624 -12.9323 30.2926
RightForeArm  2.52535 14.8629 7.20175
RightHand  -1.03626 1.77207 -16.8849
LeftUpLeg  -0.575738 4.75857 6.90909
LeftLeg  57.2165 1.22377 2.55821
LeftFoot  7.73585 1.35757 -8.27571
LeftToes  -2.63786e-011 -1.12672e-010 -2.07835e-011
131
root  -26.5708 39.0627 -23.4975 174.342 -4.78173 -178.022
RightUpLeg  -19.2913 -11.367 1.698
RightLeg  19.2363 -1.18408 1.93174
RightFoot  6.40417 0.816436 -4.94024
RightToes  1.74622e-010 0 -3.6325e-017
Spine  3.34444 -1.77761 14.0268
Spine1  8.30284 -0.383606 -2.48297
HEad  -11.9514 -2.56092 -1.80251
LeftShoulder1  8.66473 -12.1193 -48.4114
LeftArm  -10.8506 22.4004 -29.1737
LeftForeArm  25.6993 -7.77882 -4.93378
LeftHand  -0.244104 0.0205437 5.32207
RightShoulder  6.42445 9.88537 41.736
RightArm  7.93148 -12.3314 29.7405
RightForeArm  -1.54452 17.3458 6.52794
RightHand  -1.15731 2.27536 -17.6226
LeftUpLeg  -6.66379 4.4993 6.30636
LeftLeg  63.0396 2.22712 5.3488
LeftFoot  5.74602 0.716756 -4.94953
LeftToes  -2.63786e-011 -1.12672e-010 -2.07835e-011
132
root  -26.4365 39.4274 -24.4316 174.643 -4.9914 -178.599
RightUpLeg  -17.1634 -11.13 0.850366
RightLeg  17.9961 -1.83871 2.24649
RightFoot  5.37353 0.792524 -5.14027
RightToes  1.74622e-010 0 -3.6325e-017
Spine  3.84397 -1.27129 13.9651
Spine1  8.21562 0.223385 -3.12294
HEad  -13.5574 -3.51899 -1.32369
LeftShoulder1  8.6647 -12.1114 -48.4357
LeftArm  -11.0112 22.9586 -29.3824
LeftForeArm  26.8776 -9.60688 -4.87269
LeftHand  -0.244104 0.0205437 5.32207
RightShoulder  6.41317 9.93198 41.5017
RightArm  10.797 -11.7908 29.7048
RightForeArm  -4.9075 19.7324 5.85242
RightHand  -1.19795 2.33362 -18.0916
LeftUpLeg  -11.5565 5.78754 5.23593
LeftLeg  64.8591 2.63617 6.78743
LeftFoot  1.29313 0.387556 -3.64001
LeftToes  -2.63786e-011 -1.12672e-010 -2.07835e-011
133
root  -26.2963 39.7391 -25.2902 175.108 -5.04926 -179.236
RightUpLeg  -15.3809 -10.3005 -0.0702329
RightLeg  16.7676 -2.80212 2.7107
RightFoot  4.37785 0.818374 -5.70214
RightToes  1.74622e-010 0 -3.6325e-017
Spine  4.22007 -0.718457 13.5814
Spine1  7.98804 0.803551 -3.4119
HEad  -14.3991 -4.34467 -1.00196
LeftShoulder1  8.61454 -12.0814 -48.2462
LeftArm  -10.9777 23.9916 -29.7666
LeftForeArm  25.4441 -12.4529 -4.62958
LeftHand  -0.244104 0.0205437 5.32207
RightShoulder  6.36311 9.92494 41.1756
RightArm  12.945 -11.453 29.9302
RightForeArm  -7.16126 21.9293 5.4255
RightHand  -1.21227 2.23303 -18.5307
LeftUpLeg  -15.6146 7.17933 4.14639
LeftLeg  63.2033 2.91443 6.89897
LeftFoot  -1.5193 0.3782 -4.2924
LeftToes  -2.63786e-011 -1.12672e-010 -2.07835e-011
134
root  -26.1664 40.0205 -26.0849 175.55 -5.13231 -179.88
RightUpLeg  -13.7222 -9.51487 -1.02445
RightLeg  15.4343 -3.4855 3.33642
RightFoot  3.90614 0.851508 -6.15013
RightToes  1.74622e-010 0 -3.6325e-017
Spine  4.61874 -0.266702 13.0401
Spine1  7.60195 1.25743 -3.6561
HEad  -14.8138 -4.97041 -0.731105
LeftShoulder1  8.54526 -12.0312 -48.0099
LeftArm  -10.6834 24.9617 -30.0813
LeftForeArm  22.9898 -15.533 -4.24059
LeftHand  -0.244104 0.0205437 5.32207
RightShoulder  6.32333 9.86341 41.1013
RightArm  13.5829 -11.1473 30.1863
RightForeArm  -7.7041 23.4861 5.40482
RightHand  -1.28119 2.50606 -18.9062
LeftUpLeg  -18.3308 8.4399 3.09298
LeftLeg  58.204 3.38882 6.42421
LeftFoot  -2.88703 0.376061 -4.84432
LeftToes  -2.63786e-011 -1.12672e-010 -2.07835e-011
135
root  -26.0571 40.2857 -26.8352 175.791 -4.94074 179.403
RightUpLeg  -11.8604 -9.07494 -1.89853
RightLeg  13.8921 -3.58486 3.82964
RightFoot  3.66338 0.846469 -6.22607
RightToes  1.74622e-010 0 -3.6325e-017
Spine  4.92774 0.105261 12.425
Spine1  7.52677 1.69993 -4.20239
HEad  -15.213 -5.26666 -0.564421
LeftShoulder1  8.47288 -11.9527 -47.8425
LeftArm  -10.8413 25.5788 -30.1893
LeftForeArm  21.759 -18.5571 -3.83649
LeftHand  -0.244104 0.0205437 5.32207
RightShoulder  6.35188 9.87472 41.2638
RightArm  13.2519 -10.6432 30.6227
RightForeArm  -7.18931 23.95 5.47458
RightHand  -1.38697 3.12339 -18.9992
LeftUpLeg  -18.9858 9.75101 2.23331
LeftLeg  50.053 3.69548 5.19001
LeftFoot  -4.4084 0.338763 -5.16686
LeftToes  -2.63786e-011 -1.12672e-010 -2.07835e-011
